<svg xmlns="http://www.w3.org/2000/svg" xmlns:xlink="http://www.w3.org/1999/xlink" width="1920" zoomAndPan="magnify" viewBox="0 0 1440 809.999993" height="1080" preserveAspectRatio="xMidYMid meet" version="1.0"><defs><filter x="0%" y="0%" width="100%" height="100%" id="id1"><feColorMatrix values="0 0 0 0 1 0 0 0 0 1 0 0 0 0 1 0 0 0 1 0" color-interpolation-filters="sRGB"/></filter><g/><mask id="id2"><g filter="url(#id1)"><rect x="-144" width="1728" fill="#000000" y="-80.999999" height="971.999992" fill-opacity="0.1373"/></g></mask><clipPath id="id3"><path d="M 3 0 L 869 0 L 869 810 L 3 810 Z M 3 0 " clip-rule="nonzero"/></clipPath><clipPath id="id4"><rect x="0" width="869" y="0" height="810"/></clipPath><mask id="id5"><g filter="url(#id1)"><rect x="-144" width="1728" fill="#000000" y="-80.999999" height="971.999992" fill-opacity="0.1373"/></g></mask><clipPath id="id6"><path d="M 3 0.28125 L 712 0.28125 L 712 799 L 3 799 Z M 3 0.28125 " clip-rule="nonzero"/></clipPath><clipPath id="id7"><rect x="0" width="712" y="0" height="799"/></clipPath><clipPath id="id8"><path d="M 0 622.941406 L 1440 622.941406 L 1440 810 L 0 810 Z M 0 622.941406 " clip-rule="nonzero"/></clipPath><clipPath id="id9"><path d="M 910.621094 200 L 1150 200 L 1150 370 L 910.621094 370 Z M 910.621094 200 " clip-rule="nonzero"/></clipPath><clipPath id="id10"><path d="M 1048 292 L 1287.78125 292 L 1287.78125 462 L 1048 462 Z M 1048 292 " clip-rule="nonzero"/></clipPath><clipPath id="id11"><path d="M 1061 142.519531 L 1230 142.519531 L 1230 382 L 1061 382 Z M 1061 142.519531 " clip-rule="nonzero"/></clipPath><clipPath id="id12"><path d="M 968 280 L 1138 280 L 1138 519.679688 L 968 519.679688 Z M 968 280 " clip-rule="nonzero"/></clipPath></defs><rect x="-144" width="1728" fill="#ffffff" y="-80.999999" height="971.999992" fill-opacity="1"/><rect x="-144" width="1728" fill="#004a98" y="-80.999999" height="971.999992" fill-opacity="1"/><rect x="-144" width="1728" fill="#ffffff" y="-80.999999" height="971.999992" fill-opacity="1"/><rect x="-144" width="1728" fill="#004a98" y="-80.999999" height="971.999992" fill-opacity="1"/><g mask="url(#id2)"><g transform="matrix(1, 0, 0, 1, 571, 0.000000000000039746)"><g clip-path="url(#id4)"><g clip-path="url(#id3)"><path fill="#ffffff" d="M 3.535156 848.871094 C 0.75 815.960938 13.914062 781.527344 35.941406 757.480469 C 64.296875 726.339844 100.246094 718.996094 139.992188 714.441406 C 185.5625 708.871094 224.042969 675.707031 235.691406 631.148438 C 242.273438 606.085938 242.019531 579.757812 241.765625 553.933594 C 241.511719 497.734375 248.601562 441.023438 299.742188 408.367188 C 353.667969 373.683594 411.640625 404.566406 467.59375 383.808594 C 508.605469 368.617188 533.667969 325.074219 543.542969 284.570312 C 568.355469 181.785156 551.390625 66.339844 646.078125 -4.796875 C 699.242188 -44.796875 767.089844 -61 831.648438 -40.242188 C 889.878906 -21.507812 927.09375 32.921875 937.726562 91.40625 C 943.296875 122.289062 942.28125 154.949219 935.195312 185.328125 C 927.09375 219.503906 913.929688 254.695312 929.117188 289.125 C 942.789062 319.757812 970.636719 342.796875 987.601562 371.910156 C 1007.855469 406.085938 1022.539062 443.300781 1024.308594 483.300781 C 1027.347656 555.453125 988.613281 602.289062 931.902344 640.769531 C 900.511719 662.035156 864.558594 684.566406 857.21875 724.566406 C 850.890625 759.503906 863.546875 793.679688 864.558594 828.363281 C 865.574219 855.707031 859.496094 883.554688 849.625 908.871094 C 829.875 960.261719 789.875 1002.542969 736.457031 1018.492188 C 668.101562 1039.25 595.441406 1008.617188 532.910156 981.78125 C 503.035156 969.125 470.378906 957.730469 437.464844 960.007812 C 403.289062 962.289062 372.65625 975.957031 339.488281 983.808594 C 258.980469 1003.046875 179.488281 1003.808594 103.535156 968.109375 C 62.015625 948.617188 21.003906 913.933594 7.332031 868.363281 C 5.308594 862.035156 4.292969 855.453125 3.535156 848.871094 Z M 3.535156 848.871094 " fill-opacity="1" fill-rule="nonzero"/></g></g></g></g><g mask="url(#id5)"><g transform="matrix(1, 0, 0, 1, 728, 11)"><g clip-path="url(#id7)"><g clip-path="url(#id6)"><path fill="#ffffff" d="M 3.535156 898.871094 C 0.75 865.960938 13.914062 831.527344 35.941406 807.480469 C 64.296875 776.339844 100.246094 768.996094 139.992188 764.441406 C 185.5625 758.871094 224.042969 725.707031 235.691406 681.148438 C 242.273438 656.085938 242.019531 629.757812 241.765625 603.933594 C 241.511719 547.734375 248.601562 491.023438 299.742188 458.367188 C 353.667969 423.683594 411.640625 454.566406 467.59375 433.808594 C 508.605469 418.617188 533.667969 375.074219 543.542969 334.570312 C 568.355469 231.785156 551.390625 116.339844 646.078125 45.203125 C 699.242188 5.203125 767.089844 -11 831.648438 9.757812 C 889.878906 28.492188 927.09375 82.921875 937.726562 141.40625 C 943.296875 172.289062 942.28125 204.949219 935.195312 235.328125 C 927.09375 269.503906 913.929688 304.695312 929.117188 339.125 C 942.789062 369.757812 970.636719 392.796875 987.601562 421.910156 C 1007.855469 456.085938 1022.539062 493.300781 1024.308594 533.300781 C 1027.347656 605.453125 988.613281 652.289062 931.902344 690.769531 C 900.511719 712.035156 864.558594 734.566406 857.21875 774.566406 C 850.890625 809.503906 863.546875 843.679688 864.558594 878.363281 C 865.574219 905.707031 859.496094 933.554688 849.625 958.871094 C 829.875 1010.261719 789.875 1052.542969 736.457031 1068.492188 C 668.101562 1089.25 595.441406 1058.617188 532.910156 1031.78125 C 503.035156 1019.125 470.378906 1007.730469 437.464844 1010.007812 C 403.289062 1012.289062 372.65625 1025.957031 339.488281 1033.808594 C 258.980469 1053.046875 179.488281 1053.808594 103.535156 1018.109375 C 62.015625 998.617188 21.003906 963.933594 7.332031 918.363281 C 5.308594 912.035156 4.292969 905.453125 3.535156 898.871094 Z M 3.535156 898.871094 " fill-opacity="1" fill-rule="nonzero"/></g></g></g></g><g clip-path="url(#id8)"><path fill="#011c50" d="M -106.136719 622.941406 L 1440.316406 622.941406 L 1440.316406 867.441406 L -106.136719 867.441406 L -106.136719 622.941406 " fill-opacity="1" fill-rule="nonzero"/></g><path fill="#f7a400" d="M 113.328125 143.019531 C 118.609375 144.917969 123.507812 146.78125 128.503906 148.425781 C 133.496094 150.070312 137.480469 153.261719 141.304688 156.644531 C 144.023438 159.046875 144.910156 162.207031 143.644531 165.714844 C 142.820312 168.023438 141.9375 170.390625 140.765625 172.542969 C 136.46875 180.378906 129.324219 182.941406 120.789062 180.601562 C 109.664062 177.566406 106.25 173.207031 104.320312 159.550781 C 103.910156 156.675781 104.257812 153.703125 104.257812 150.289062 C 102.328125 150.542969 100.335938 150.574219 98.441406 151.050781 C 91.011719 152.851562 83.960938 155.347656 78.050781 160.59375 C 75.996094 162.394531 73.089844 163.34375 70.464844 164.355469 C 68.726562 165.019531 68.222656 164.324219 68.820312 162.523438 C 70.308594 157.9375 73.277344 153.925781 77.261719 151.175781 C 85.796875 145.203125 94.964844 141.0625 105.710938 141.566406 C 106.3125 141.597656 107.292969 140.964844 107.511719 140.398438 C 113.140625 126.996094 121.707031 115.773438 131.664062 105.25 C 143.011719 93.238281 156.667969 83.597656 171.808594 76.929688 C 184.960938 71.082031 198.234375 64.824219 212.367188 61.789062 C 234.050781 57.144531 255.957031 56.828125 277.925781 60.527344 C 300.8125 64.351562 323.257812 70.007812 345.761719 75.382812 C 360.683594 78.953125 375.636719 82.652344 390.964844 83.535156 C 402.757812 84.230469 414.640625 84.042969 426.464844 83.664062 C 435.886719 83.378906 445.304688 82.585938 454.660156 81.324219 C 465.882812 79.804688 476.1875 75.128906 486.558594 70.894531 C 500.054688 65.425781 511.023438 56.796875 519.019531 44.53125 C 519.875 43.238281 520.792969 41.941406 522.53125 42.667969 C 524.269531 43.394531 524.078125 45.101562 523.730469 46.492188 C 522.78125 50.664062 520.726562 54.519531 517.789062 57.648438 C 509.507812 66.371094 500.402344 73.925781 489.054688 78.445312 C 477.988281 82.871094 467.117188 87.867188 455.199219 89.605469 C 447.484375 90.710938 439.679688 91.53125 431.871094 91.941406 C 420.363281 92.511719 408.824219 93.019531 397.289062 92.796875 C 380.25 92.480469 363.6875 88.59375 347.152344 84.863281 C 328.691406 80.753906 310.328125 75.980469 291.804688 72.0625 C 276.597656 68.839844 261.234375 66.214844 245.523438 66.722656 C 234.460938 67.101562 223.113281 66.785156 212.585938 70.132812 C 190.964844 77.023438 168.871094 83.28125 150.34375 97.222656 C 135.679688 108.253906 123.097656 121.304688 115.226562 138.246094 C 114.5 139.765625 113.992188 141.378906 113.328125 143.019531 Z M 111.242188 151.648438 C 110.011719 156.707031 110.957031 161.195312 112.382812 165.652344 C 114.277344 171.46875 119.746094 175.039062 126.195312 174.753906 C 131.789062 174.5 135.078125 171.371094 136.625 164.796875 C 136.65625 164.734375 136.722656 164.640625 136.691406 164.578125 C 136.339844 163.660156 136.277344 162.394531 135.613281 161.859375 C 128.597656 156.105469 120.15625 153.671875 111.242188 151.648438 Z M 111.242188 151.648438 " fill-opacity="1" fill-rule="nonzero"/><g fill="#ffffff" fill-opacity="1"><g transform="translate(81.000002, 353.489035)"><g><path d="M 43.46875 -76.472656 L 6.667969 -76.472656 L 6.667969 0 L 43.46875 0 C 68.308594 0 79.578125 -18.167969 79.578125 -38.410156 C 79.578125 -58.535156 68.308594 -76.472656 43.46875 -76.472656 Z M 39.558594 -13.914062 L 24.148438 -13.914062 L 24.148438 -62.671875 L 39.558594 -62.671875 C 55.082031 -62.671875 61.410156 -54.738281 61.410156 -38.410156 C 61.410156 -22.195312 55.199219 -13.914062 39.558594 -13.914062 Z M 39.558594 -13.914062 "/></g></g></g><g fill="#ffffff" fill-opacity="1"><g transform="translate(164.947172, 353.489035)"><g><path d="M 35.535156 -9.890625 C 27.371094 -9.890625 21.964844 -13.453125 20.929688 -24.378906 L 64.742188 -24.378906 C 64.972656 -25.644531 64.972656 -27.253906 64.972656 -28.980469 C 64.972656 -45.195312 56.921875 -59.339844 35.1875 -59.339844 C 13.914062 -59.339844 4.253906 -45.539062 4.253906 -28.863281 C 4.253906 -12.648438 12.765625 1.839844 35.1875 1.839844 C 55.890625 1.839844 63.25 -8.164062 64.859375 -17.363281 L 48.527344 -17.363281 C 46.917969 -13.109375 43.007812 -9.890625 35.535156 -9.890625 Z M 35.417969 -47.839844 C 43.929688 -47.839844 48.183594 -43.46875 48.757812 -34.730469 L 21.042969 -34.730469 C 22.425781 -44.503906 27.253906 -47.839844 35.417969 -47.839844 Z M 35.417969 -47.839844 "/></g></g></g><g fill="#ffffff" fill-opacity="1"><g transform="translate(233.944845, 353.489035)"><g><path d="M 48.875 -57.5 L 33.695312 -13.226562 L 18.515625 -57.5 L 1.148438 -57.5 L 21.160156 0 L 45.078125 0 L 65.089844 -57.5 Z M 48.875 -57.5 "/></g></g></g><g fill="#ffffff" fill-opacity="1"><g transform="translate(300.067602, 353.489035)"><g><path d="M 101.886719 -76.472656 L 89.582031 -10.234375 L 75.207031 -76.472656 L 48.875 -76.472656 L 34.5 -10.234375 L 22.078125 -76.472656 L 4.945312 -76.472656 L 19.203125 0 L 48.875 0 L 61.984375 -62.902344 L 75.09375 0 L 104.761719 0 L 119.136719 -76.472656 Z M 101.886719 -76.472656 "/></g></g></g><g fill="#ffffff" fill-opacity="1"><g transform="translate(424.033432, 353.489035)"><g><path d="M 44.390625 -59.339844 C 33.925781 -59.339844 27.371094 -54.046875 23.691406 -46.230469 L 23.691406 -80.5 L 6.667969 -80.5 L 6.667969 0 L 23.691406 0 L 23.691406 -26.105469 C 23.691406 -39.789062 28.75 -45.539062 37.835938 -45.539062 C 44.847656 -45.539062 48.757812 -41.859375 48.757812 -32.660156 L 48.757812 0 L 65.777344 0 L 65.777344 -35.304688 C 65.777344 -50.367188 59.453125 -59.339844 44.390625 -59.339844 Z M 44.390625 -59.339844 "/></g></g></g><g fill="#ffffff" fill-opacity="1"><g transform="translate(495.676007, 353.489035)"><g><path d="M 36.109375 1.839844 C 59.109375 1.839844 67.964844 -12.878906 67.964844 -28.863281 C 67.964844 -44.617188 59.109375 -59.339844 36.109375 -59.339844 C 13.226562 -59.339844 4.253906 -44.734375 4.253906 -28.863281 C 4.253906 -12.765625 13.226562 1.839844 36.109375 1.839844 Z M 21.390625 -28.75 C 21.390625 -41.515625 25.757812 -46 36.109375 -46 C 46.574219 -46 50.945312 -41.515625 50.945312 -28.75 C 50.945312 -15.984375 46.574219 -11.5 36.109375 -11.5 C 25.757812 -11.5 21.390625 -15.984375 21.390625 -28.75 Z M 21.390625 -28.75 "/></g></g></g><g fill="#ffffff" fill-opacity="1"><g transform="translate(81.000002, 421.88906)"><g><path d="M 28.621094 -23.941406 L 23.472656 -23.941406 L 15.589844 -2.699219 L 7.667969 -23.941406 L 2.449219 -23.941406 L 2.449219 0 L 5.4375 0 L 5.4375 -21.707031 L 13.535156 0 L 17.566406 0 L 25.632812 -21.707031 L 25.632812 0 L 28.621094 0 Z M 28.621094 -23.941406 "/></g></g></g><g fill="#ffffff" fill-opacity="1"><g transform="translate(112.068067, 421.88906)"><g><path d="M 10.765625 -1.621094 C 7.164062 -1.621094 4.789062 -3.421875 4.570312 -8.351562 L 19.042969 -8.351562 C 19.117188 -8.785156 19.117188 -9.144531 19.117188 -9.613281 C 19.117188 -14.867188 16.054688 -18.574219 10.65625 -18.574219 C 4.679688 -18.574219 1.726562 -14.398438 1.726562 -9.035156 C 1.726562 -3.601562 4.464844 0.574219 10.65625 0.574219 C 16.632812 0.574219 18.71875 -2.808594 19.078125 -5.542969 L 16.453125 -5.542969 C 15.910156 -3.277344 14.292969 -1.621094 10.765625 -1.621094 Z M 10.691406 -16.378906 C 14.039062 -16.378906 16.164062 -14.652344 16.308594 -10.511719 L 4.644531 -10.511719 C 5.039062 -14.761719 7.273438 -16.378906 10.691406 -16.378906 Z M 10.691406 -16.378906 "/></g></g></g><g fill="#ffffff" fill-opacity="1"><g transform="translate(132.804108, 421.88906)"><g><path d="M 12.421875 -18.574219 C 8.855469 -18.574219 6.625 -16.558594 5.507812 -13.285156 L 5.507812 -18 L 2.628906 -18 L 2.628906 0 L 5.507812 0 L 5.507812 -6.875 C 5.507812 -13.066406 7.632812 -16.164062 11.628906 -16.164062 C 14.257812 -16.164062 15.949219 -15.011719 15.949219 -11.160156 L 15.949219 0 L 18.828125 0 L 18.828125 -11.484375 C 18.828125 -16.128906 16.921875 -18.574219 12.421875 -18.574219 Z M 12.421875 -18.574219 "/></g></g></g><g fill="#ffffff" fill-opacity="1"><g transform="translate(153.900145, 421.88906)"><g><path d="M 8.496094 0 L 12.742188 0 L 12.742188 -2.339844 L 7.019531 -2.339844 L 7.019531 -15.730469 L 12.960938 -15.730469 L 12.960938 -18 L 7.019531 -18 L 7.019531 -21.996094 L 5.472656 -21.996094 L 4.390625 -18.253906 L 0.71875 -17.351562 L 0.71875 -15.730469 L 4.140625 -15.730469 L 4.140625 -4.210938 C 4.140625 -1.332031 5.039062 0 8.496094 0 Z M 8.496094 0 "/></g></g></g><g fill="#ffffff" fill-opacity="1"><g transform="translate(167.976172, 421.88906)"><g><path d="M 10.800781 0.574219 C 16.847656 0.574219 19.835938 -3.636719 19.835938 -9.035156 C 19.835938 -14.363281 16.847656 -18.574219 10.800781 -18.574219 C 4.714844 -18.574219 1.726562 -14.398438 1.726562 -9.035156 C 1.726562 -3.601562 4.714844 0.574219 10.800781 0.574219 Z M 4.644531 -9 C 4.644531 -14.074219 6.730469 -16.234375 10.800781 -16.234375 C 14.867188 -16.234375 16.921875 -14.074219 16.921875 -9 C 16.921875 -3.960938 14.867188 -1.765625 10.800781 -1.765625 C 6.730469 -1.765625 4.644531 -3.960938 4.644531 -9 Z M 4.644531 -9 "/></g></g></g><g fill="#ffffff" fill-opacity="1"><g transform="translate(189.540216, 421.88906)"><g><path d="M 12.097656 -18.253906 C 8.675781 -18.253906 6.589844 -16.234375 5.507812 -13.246094 L 5.507812 -18 L 2.628906 -18 L 2.628906 0 L 5.507812 0 L 5.507812 -6.625 C 5.507812 -11.699219 6.660156 -15.589844 11.988281 -15.40625 L 12.742188 -15.40625 L 12.742188 -18.253906 Z M 12.097656 -18.253906 "/></g></g></g><g fill="#ffffff" fill-opacity="1"><g transform="translate(203.400246, 421.88906)"><g><path d="M 2.230469 -20.953125 L 5.941406 -20.953125 L 5.941406 -23.941406 L 2.230469 -23.941406 Z M 2.628906 0 L 5.507812 0 L 5.507812 -18 L 2.628906 -18 Z M 2.628906 0 "/></g></g></g><g fill="#ffffff" fill-opacity="1"><g transform="translate(211.572266, 421.88906)"><g><path d="M 8.027344 0.46875 C 12.203125 0.46875 14.113281 -2.050781 14.796875 -4.210938 C 14.796875 -2.878906 14.902344 -1.546875 15.046875 0 L 17.675781 0 C 17.496094 -1.765625 17.460938 -3.167969 17.460938 -4.464844 L 17.460938 -13.105469 C 17.460938 -16.34375 15.226562 -18.613281 10.296875 -18.613281 C 5.328125 -18.613281 2.628906 -16.164062 2.519531 -12.347656 L 5.363281 -12.347656 C 5.542969 -14.6875 6.875 -16.34375 10.402344 -16.34375 C 13.894531 -16.34375 14.832031 -14.941406 14.832031 -13.105469 C 14.832031 -11.734375 14.039062 -11.230469 12.132812 -10.90625 L 7.558594 -10.152344 C 3.671875 -9.503906 2.089844 -7.667969 2.089844 -4.753906 C 2.089844 -1.332031 4.570312 0.46875 8.027344 0.46875 Z M 8.605469 -1.800781 C 6.480469 -1.800781 5.003906 -2.808594 5.003906 -4.859375 C 5.003906 -6.804688 6.15625 -7.738281 8.605469 -8.242188 L 11.59375 -8.855469 C 12.960938 -9.144531 13.933594 -9.433594 14.832031 -10.078125 L 14.832031 -8.53125 C 14.832031 -5.113281 12.851562 -1.800781 8.605469 -1.800781 Z M 8.605469 -1.800781 "/></g></g></g><g fill="#ffffff" fill-opacity="1"><g transform="translate(231.3003, 421.88906)"><g/></g></g><g fill="#ffffff" fill-opacity="1"><g transform="translate(239.400314, 421.88906)"><g><path d="M 12.238281 -18.574219 C 8.929688 -18.574219 6.660156 -17.101562 5.4375 -14.542969 L 5.4375 -18 L 2.554688 -18 L 2.554688 7.199219 L 5.4375 7.199219 L 5.4375 -3.421875 C 6.660156 -0.863281 8.929688 0.574219 12.238281 0.574219 C 17.890625 0.574219 20.484375 -3.457031 20.484375 -9 C 20.484375 -14.507812 17.890625 -18.574219 12.238281 -18.574219 Z M 11.664062 -1.765625 C 7.847656 -1.765625 5.4375 -3.925781 5.4375 -9 C 5.4375 -14.074219 7.847656 -16.234375 11.664062 -16.234375 C 15.769531 -16.234375 17.566406 -13.824219 17.566406 -9 C 17.566406 -4.140625 15.769531 -1.765625 11.664062 -1.765625 Z M 11.664062 -1.765625 "/></g></g></g><g fill="#ffffff" fill-opacity="1"><g transform="translate(261.64836, 421.88906)"><g><path d="M 8.027344 0.46875 C 12.203125 0.46875 14.113281 -2.050781 14.796875 -4.210938 C 14.796875 -2.878906 14.902344 -1.546875 15.046875 0 L 17.675781 0 C 17.496094 -1.765625 17.460938 -3.167969 17.460938 -4.464844 L 17.460938 -13.105469 C 17.460938 -16.34375 15.226562 -18.613281 10.296875 -18.613281 C 5.328125 -18.613281 2.628906 -16.164062 2.519531 -12.347656 L 5.363281 -12.347656 C 5.542969 -14.6875 6.875 -16.34375 10.402344 -16.34375 C 13.894531 -16.34375 14.832031 -14.941406 14.832031 -13.105469 C 14.832031 -11.734375 14.039062 -11.230469 12.132812 -10.90625 L 7.558594 -10.152344 C 3.671875 -9.503906 2.089844 -7.667969 2.089844 -4.753906 C 2.089844 -1.332031 4.570312 0.46875 8.027344 0.46875 Z M 8.605469 -1.800781 C 6.480469 -1.800781 5.003906 -2.808594 5.003906 -4.859375 C 5.003906 -6.804688 6.15625 -7.738281 8.605469 -8.242188 L 11.59375 -8.855469 C 12.960938 -9.144531 13.933594 -9.433594 14.832031 -10.078125 L 14.832031 -8.53125 C 14.832031 -5.113281 12.851562 -1.800781 8.605469 -1.800781 Z M 8.605469 -1.800781 "/></g></g></g><g fill="#ffffff" fill-opacity="1"><g transform="translate(281.376382, 421.88906)"><g><path d="M 12.097656 -18.253906 C 8.675781 -18.253906 6.589844 -16.234375 5.507812 -13.246094 L 5.507812 -18 L 2.628906 -18 L 2.628906 0 L 5.507812 0 L 5.507812 -6.625 C 5.507812 -11.699219 6.660156 -15.589844 11.988281 -15.40625 L 12.742188 -15.40625 L 12.742188 -18.253906 Z M 12.097656 -18.253906 "/></g></g></g><g fill="#ffffff" fill-opacity="1"><g transform="translate(295.236413, 421.88906)"><g><path d="M 8.027344 0.46875 C 12.203125 0.46875 14.113281 -2.050781 14.796875 -4.210938 C 14.796875 -2.878906 14.902344 -1.546875 15.046875 0 L 17.675781 0 C 17.496094 -1.765625 17.460938 -3.167969 17.460938 -4.464844 L 17.460938 -13.105469 C 17.460938 -16.34375 15.226562 -18.613281 10.296875 -18.613281 C 5.328125 -18.613281 2.628906 -16.164062 2.519531 -12.347656 L 5.363281 -12.347656 C 5.542969 -14.6875 6.875 -16.34375 10.402344 -16.34375 C 13.894531 -16.34375 14.832031 -14.941406 14.832031 -13.105469 C 14.832031 -11.734375 14.039062 -11.230469 12.132812 -10.90625 L 7.558594 -10.152344 C 3.671875 -9.503906 2.089844 -7.667969 2.089844 -4.753906 C 2.089844 -1.332031 4.570312 0.46875 8.027344 0.46875 Z M 8.605469 -1.800781 C 6.480469 -1.800781 5.003906 -2.808594 5.003906 -4.859375 C 5.003906 -6.804688 6.15625 -7.738281 8.605469 -8.242188 L 11.59375 -8.855469 C 12.960938 -9.144531 13.933594 -9.433594 14.832031 -10.078125 L 14.832031 -8.53125 C 14.832031 -5.113281 12.851562 -1.800781 8.605469 -1.800781 Z M 8.605469 -1.800781 "/></g></g></g><g fill="#ffffff" fill-opacity="1"><g transform="translate(314.964447, 421.88906)"><g/></g></g><g fill="#ffffff" fill-opacity="1"><g transform="translate(323.06446, 421.88906)"><g><path d="M 16.054688 -18 L 9.972656 -2.519531 L 3.925781 -18 L 0.898438 -18 L 7.992188 0 L 11.808594 0 L 18.898438 -18 Z M 16.054688 -18 "/></g></g></g><g fill="#ffffff" fill-opacity="1"><g transform="translate(342.828498, 421.88906)"><g><path d="M 10.800781 0.574219 C 16.847656 0.574219 19.835938 -3.636719 19.835938 -9.035156 C 19.835938 -14.363281 16.847656 -18.574219 10.800781 -18.574219 C 4.714844 -18.574219 1.726562 -14.398438 1.726562 -9.035156 C 1.726562 -3.601562 4.714844 0.574219 10.800781 0.574219 Z M 4.644531 -9 C 4.644531 -14.074219 6.730469 -16.234375 10.800781 -16.234375 C 14.867188 -16.234375 16.921875 -14.074219 16.921875 -9 C 16.921875 -3.960938 14.867188 -1.765625 10.800781 -1.765625 C 6.730469 -1.765625 4.644531 -3.960938 4.644531 -9 Z M 4.644531 -9 "/></g></g></g><g fill="#ffffff" fill-opacity="1"><g transform="translate(364.392553, 421.88906)"><g><path d="M 1.726562 -9 C 1.726562 -3.492188 4.824219 0.574219 10.726562 0.574219 C 16.199219 0.574219 19.117188 -2.734375 19.332031 -6.875 L 16.597656 -6.875 C 16.234375 -3.816406 14.363281 -1.765625 10.726562 -1.765625 C 6.949219 -1.765625 4.644531 -3.78125 4.644531 -9 C 4.644531 -14.183594 7.019531 -16.234375 10.835938 -16.234375 C 14.183594 -16.234375 15.984375 -14.363281 16.414062 -11.410156 L 19.117188 -11.410156 C 18.828125 -15.589844 16.128906 -18.574219 10.726562 -18.574219 C 4.894531 -18.574219 1.726562 -14.507812 1.726562 -9 Z M 1.726562 -9 "/></g></g></g><g fill="#ffffff" fill-opacity="1"><g transform="translate(385.236591, 421.88906)"><g><path d="M 10.441406 -22.464844 L 14.21875 -19.621094 L 15.625 -21.023438 L 11.628906 -23.941406 L 9.253906 -23.941406 L 5.257812 -21.023438 L 6.660156 -19.621094 Z M 10.765625 -1.621094 C 7.164062 -1.621094 4.789062 -3.421875 4.570312 -8.351562 L 19.042969 -8.351562 C 19.117188 -8.785156 19.117188 -9.144531 19.117188 -9.613281 C 19.117188 -14.867188 16.054688 -18.574219 10.65625 -18.574219 C 4.679688 -18.574219 1.726562 -14.398438 1.726562 -9.035156 C 1.726562 -3.601562 4.464844 0.574219 10.65625 0.574219 C 16.632812 0.574219 18.71875 -2.808594 19.078125 -5.542969 L 16.453125 -5.542969 C 15.910156 -3.277344 14.292969 -1.621094 10.765625 -1.621094 Z M 10.691406 -16.378906 C 14.039062 -16.378906 16.164062 -14.652344 16.308594 -10.511719 L 4.644531 -10.511719 C 5.039062 -14.761719 7.273438 -16.378906 10.691406 -16.378906 Z M 10.691406 -16.378906 "/></g></g></g><g fill="#ffffff" fill-opacity="1"><g transform="translate(405.972644, 421.88906)"><g/></g></g><g fill="#ffffff" fill-opacity="1"><g transform="translate(414.072657, 421.88906)"><g><path d="M 8.027344 0.46875 C 12.203125 0.46875 14.113281 -2.050781 14.796875 -4.210938 C 14.796875 -2.878906 14.902344 -1.546875 15.046875 0 L 17.675781 0 C 17.496094 -1.765625 17.460938 -3.167969 17.460938 -4.464844 L 17.460938 -13.105469 C 17.460938 -16.34375 15.226562 -18.613281 10.296875 -18.613281 C 5.328125 -18.613281 2.628906 -16.164062 2.519531 -12.347656 L 5.363281 -12.347656 C 5.542969 -14.6875 6.875 -16.34375 10.402344 -16.34375 C 13.894531 -16.34375 14.832031 -14.941406 14.832031 -13.105469 C 14.832031 -11.734375 14.039062 -11.230469 12.132812 -10.90625 L 7.558594 -10.152344 C 3.671875 -9.503906 2.089844 -7.667969 2.089844 -4.753906 C 2.089844 -1.332031 4.570312 0.46875 8.027344 0.46875 Z M 8.605469 -1.800781 C 6.480469 -1.800781 5.003906 -2.808594 5.003906 -4.859375 C 5.003906 -6.804688 6.15625 -7.738281 8.605469 -8.242188 L 11.59375 -8.855469 C 12.960938 -9.144531 13.933594 -9.433594 14.832031 -10.078125 L 14.832031 -8.53125 C 14.832031 -5.113281 12.851562 -1.800781 8.605469 -1.800781 Z M 8.605469 -1.800781 "/></g></g></g><g fill="#ffffff" fill-opacity="1"><g transform="translate(433.800691, 421.88906)"><g><path d="M 2.59375 0 L 5.472656 0 L 5.472656 -25.199219 L 2.59375 -25.199219 Z M 2.59375 0 "/></g></g></g><g fill="#ffffff" fill-opacity="1"><g transform="translate(441.864702, 421.88906)"><g><path d="M 1.726562 -9 C 1.726562 -3.492188 4.824219 0.574219 10.726562 0.574219 C 16.199219 0.574219 19.117188 -2.734375 19.332031 -6.875 L 16.597656 -6.875 C 16.234375 -3.816406 14.363281 -1.765625 10.726562 -1.765625 C 6.949219 -1.765625 4.644531 -3.78125 4.644531 -9 C 4.644531 -14.183594 7.019531 -16.234375 10.835938 -16.234375 C 14.183594 -16.234375 15.984375 -14.363281 16.414062 -11.410156 L 19.117188 -11.410156 C 18.828125 -15.589844 16.128906 -18.574219 10.726562 -18.574219 C 4.894531 -18.574219 1.726562 -14.507812 1.726562 -9 Z M 1.726562 -9 "/></g></g></g><g fill="#ffffff" fill-opacity="1"><g transform="translate(462.70874, 421.88906)"><g><path d="M 8.027344 0.46875 C 12.203125 0.46875 14.113281 -2.050781 14.796875 -4.210938 C 14.796875 -2.878906 14.902344 -1.546875 15.046875 0 L 17.675781 0 C 17.496094 -1.765625 17.460938 -3.167969 17.460938 -4.464844 L 17.460938 -13.105469 C 17.460938 -16.34375 15.226562 -18.613281 10.296875 -18.613281 C 5.328125 -18.613281 2.628906 -16.164062 2.519531 -12.347656 L 5.363281 -12.347656 C 5.542969 -14.6875 6.875 -16.34375 10.402344 -16.34375 C 13.894531 -16.34375 14.832031 -14.941406 14.832031 -13.105469 C 14.832031 -11.734375 14.039062 -11.230469 12.132812 -10.90625 L 7.558594 -10.152344 C 3.671875 -9.503906 2.089844 -7.667969 2.089844 -4.753906 C 2.089844 -1.332031 4.570312 0.46875 8.027344 0.46875 Z M 8.605469 -1.800781 C 6.480469 -1.800781 5.003906 -2.808594 5.003906 -4.859375 C 5.003906 -6.804688 6.15625 -7.738281 8.605469 -8.242188 L 11.59375 -8.855469 C 12.960938 -9.144531 13.933594 -9.433594 14.832031 -10.078125 L 14.832031 -8.53125 C 14.832031 -5.113281 12.851562 -1.800781 8.605469 -1.800781 Z M 8.605469 -1.800781 "/></g></g></g><g fill="#ffffff" fill-opacity="1"><g transform="translate(482.436751, 421.88906)"><g><path d="M 12.421875 -18.574219 C 8.855469 -18.574219 6.625 -16.558594 5.507812 -13.285156 L 5.507812 -18 L 2.628906 -18 L 2.628906 0 L 5.507812 0 L 5.507812 -6.875 C 5.507812 -13.066406 7.632812 -16.164062 11.628906 -16.164062 C 14.257812 -16.164062 15.949219 -15.011719 15.949219 -11.160156 L 15.949219 0 L 18.828125 0 L 18.828125 -11.484375 C 18.828125 -16.128906 16.921875 -18.574219 12.421875 -18.574219 Z M 12.421875 -18.574219 "/></g></g></g><g fill="#ffffff" fill-opacity="1"><g transform="translate(503.532789, 421.88906)"><g><path d="M 19.332031 -6.875 L 16.597656 -6.875 C 16.234375 -3.816406 14.363281 -1.765625 10.726562 -1.765625 C 6.949219 -1.765625 4.644531 -3.78125 4.644531 -9 C 4.644531 -14.183594 7.019531 -16.234375 10.835938 -16.234375 C 14.183594 -16.234375 15.984375 -14.363281 16.414062 -11.410156 L 19.117188 -11.410156 C 18.828125 -15.589844 16.128906 -18.574219 10.726562 -18.574219 C 4.894531 -18.574219 1.726562 -14.507812 1.726562 -9 C 1.726562 -3.78125 4.535156 0.179688 9.863281 0.539062 L 10.726562 3.851562 L 7.882812 3.851562 L 7.882812 5.867188 L 10.945312 5.867188 C 12.382812 5.867188 13.320312 5.074219 12.851562 3.238281 L 12.132812 0.503906 C 16.703125 -0.0351562 19.152344 -3.097656 19.332031 -6.875 Z M 19.332031 -6.875 "/></g></g></g><g fill="#ffffff" fill-opacity="1"><g transform="translate(524.376828, 421.88906)"><g><path d="M 8.027344 0.46875 C 12.203125 0.46875 14.113281 -2.050781 14.796875 -4.210938 C 14.796875 -2.878906 14.902344 -1.546875 15.046875 0 L 17.675781 0 C 17.496094 -1.765625 17.460938 -3.167969 17.460938 -4.464844 L 17.460938 -13.105469 C 17.460938 -16.34375 15.226562 -18.613281 10.296875 -18.613281 C 5.328125 -18.613281 2.628906 -16.164062 2.519531 -12.347656 L 5.363281 -12.347656 C 5.542969 -14.6875 6.875 -16.34375 10.402344 -16.34375 C 13.894531 -16.34375 14.832031 -14.941406 14.832031 -13.105469 C 14.832031 -11.734375 14.039062 -11.230469 12.132812 -10.90625 L 7.558594 -10.152344 C 3.671875 -9.503906 2.089844 -7.667969 2.089844 -4.753906 C 2.089844 -1.332031 4.570312 0.46875 8.027344 0.46875 Z M 8.605469 -1.800781 C 6.480469 -1.800781 5.003906 -2.808594 5.003906 -4.859375 C 5.003906 -6.804688 6.15625 -7.738281 8.605469 -8.242188 L 11.59375 -8.855469 C 12.960938 -9.144531 13.933594 -9.433594 14.832031 -10.078125 L 14.832031 -8.53125 C 14.832031 -5.113281 12.851562 -1.800781 8.605469 -1.800781 Z M 8.605469 -1.800781 "/></g></g></g><g fill="#ffffff" fill-opacity="1"><g transform="translate(544.104839, 421.88906)"><g><path d="M 12.097656 -18.253906 C 8.675781 -18.253906 6.589844 -16.234375 5.507812 -13.246094 L 5.507812 -18 L 2.628906 -18 L 2.628906 0 L 5.507812 0 L 5.507812 -6.625 C 5.507812 -11.699219 6.660156 -15.589844 11.988281 -15.40625 L 12.742188 -15.40625 L 12.742188 -18.253906 Z M 12.097656 -18.253906 "/></g></g></g><g fill="#ffffff" fill-opacity="1"><g transform="translate(557.96487, 421.88906)"><g/></g></g><g fill="#ffffff" fill-opacity="1"><g transform="translate(566.06486, 421.88906)"><g><path d="M 1.367188 -6.011719 C 1.441406 -2.230469 3.816406 0.574219 9.683594 0.574219 C 14.472656 0.574219 17.027344 -1.222656 17.027344 -4.894531 C 17.027344 -7.847656 15.515625 -9.613281 11.375 -10.222656 L 7.558594 -10.765625 C 5.292969 -11.089844 4.644531 -12.167969 4.644531 -13.429688 C 4.644531 -15.191406 5.902344 -16.414062 8.964844 -16.414062 C 12.277344 -16.414062 13.644531 -14.722656 13.824219 -12.851562 L 16.667969 -12.851562 C 16.453125 -16.234375 13.753906 -18.613281 9.035156 -18.613281 C 4.5 -18.613281 1.835938 -16.558594 1.835938 -13.210938 C 1.835938 -10.441406 3.601562 -8.785156 6.730469 -8.351562 L 10.90625 -7.738281 C 13.175781 -7.414062 14.183594 -6.480469 14.183594 -4.753906 C 14.183594 -2.734375 12.925781 -1.621094 9.757812 -1.621094 C 5.617188 -1.621094 4.246094 -3.5625 4.03125 -6.011719 Z M 1.367188 -6.011719 "/></g></g></g><g fill="#ffffff" fill-opacity="1"><g transform="translate(584.640909, 421.88906)"><g><path d="M 10.765625 -1.621094 C 7.164062 -1.621094 4.789062 -3.421875 4.570312 -8.351562 L 19.042969 -8.351562 C 19.117188 -8.785156 19.117188 -9.144531 19.117188 -9.613281 C 19.117188 -14.867188 16.054688 -18.574219 10.65625 -18.574219 C 4.679688 -18.574219 1.726562 -14.398438 1.726562 -9.035156 C 1.726562 -3.601562 4.464844 0.574219 10.65625 0.574219 C 16.632812 0.574219 18.71875 -2.808594 19.078125 -5.542969 L 16.453125 -5.542969 C 15.910156 -3.277344 14.292969 -1.621094 10.765625 -1.621094 Z M 10.691406 -16.378906 C 14.039062 -16.378906 16.164062 -14.652344 16.308594 -10.511719 L 4.644531 -10.511719 C 5.039062 -14.761719 7.273438 -16.378906 10.691406 -16.378906 Z M 10.691406 -16.378906 "/></g></g></g><g fill="#ffffff" fill-opacity="1"><g transform="translate(605.376961, 421.88906)"><g><path d="M 15.550781 -18 L 15.550781 -11.125 C 15.550781 -5.148438 13.429688 -1.800781 9.683594 -1.800781 C 6.910156 -1.800781 5.148438 -2.84375 5.148438 -6.839844 L 5.148438 -18 L 2.269531 -18 L 2.269531 -6.515625 C 2.269531 -1.800781 4.320312 0.574219 8.855469 0.574219 C 12.347656 0.574219 14.472656 -1.367188 15.550781 -4.570312 L 15.550781 0 L 18.433594 0 L 18.433594 -18 Z M 15.550781 -18 "/></g></g></g><g fill="#ffffff" fill-opacity="1"><g transform="translate(626.437018, 421.88906)"><g><path d="M 1.367188 -6.011719 C 1.441406 -2.230469 3.816406 0.574219 9.683594 0.574219 C 14.472656 0.574219 17.027344 -1.222656 17.027344 -4.894531 C 17.027344 -7.847656 15.515625 -9.613281 11.375 -10.222656 L 7.558594 -10.765625 C 5.292969 -11.089844 4.644531 -12.167969 4.644531 -13.429688 C 4.644531 -15.191406 5.902344 -16.414062 8.964844 -16.414062 C 12.277344 -16.414062 13.644531 -14.722656 13.824219 -12.851562 L 16.667969 -12.851562 C 16.453125 -16.234375 13.753906 -18.613281 9.035156 -18.613281 C 4.5 -18.613281 1.835938 -16.558594 1.835938 -13.210938 C 1.835938 -10.441406 3.601562 -8.785156 6.730469 -8.351562 L 10.90625 -7.738281 C 13.175781 -7.414062 14.183594 -6.480469 14.183594 -4.753906 C 14.183594 -2.734375 12.925781 -1.621094 9.757812 -1.621094 C 5.617188 -1.621094 4.246094 -3.5625 4.03125 -6.011719 Z M 1.367188 -6.011719 "/></g></g></g><g fill="#ffffff" fill-opacity="1"><g transform="translate(645.013067, 421.88906)"><g/></g></g><g fill="#ffffff" fill-opacity="1"><g transform="translate(653.113103, 421.88906)"><g><path d="M 1.367188 -6.011719 C 1.441406 -2.230469 3.816406 0.574219 9.683594 0.574219 C 14.472656 0.574219 17.027344 -1.222656 17.027344 -4.894531 C 17.027344 -7.847656 15.515625 -9.613281 11.375 -10.222656 L 7.558594 -10.765625 C 5.292969 -11.089844 4.644531 -12.167969 4.644531 -13.429688 C 4.644531 -15.191406 5.902344 -16.414062 8.964844 -16.414062 C 12.277344 -16.414062 13.644531 -14.722656 13.824219 -12.851562 L 16.667969 -12.851562 C 16.453125 -16.234375 13.753906 -18.613281 9.035156 -18.613281 C 4.5 -18.613281 1.835938 -16.558594 1.835938 -13.210938 C 1.835938 -10.441406 3.601562 -8.785156 6.730469 -8.351562 L 10.90625 -7.738281 C 13.175781 -7.414062 14.183594 -6.480469 14.183594 -4.753906 C 14.183594 -2.734375 12.925781 -1.621094 9.757812 -1.621094 C 5.617188 -1.621094 4.246094 -3.5625 4.03125 -6.011719 Z M 1.367188 -6.011719 "/></g></g></g><g fill="#ffffff" fill-opacity="1"><g transform="translate(671.689152, 421.88906)"><g><path d="M 10.800781 0.574219 C 16.847656 0.574219 19.835938 -3.636719 19.835938 -9.035156 C 19.835938 -14.363281 16.847656 -18.574219 10.800781 -18.574219 C 4.714844 -18.574219 1.726562 -14.398438 1.726562 -9.035156 C 1.726562 -3.601562 4.714844 0.574219 10.800781 0.574219 Z M 4.644531 -9 C 4.644531 -14.074219 6.730469 -16.234375 10.800781 -16.234375 C 14.867188 -16.234375 16.921875 -14.074219 16.921875 -9 C 16.921875 -3.960938 14.867188 -1.765625 10.800781 -1.765625 C 6.730469 -1.765625 4.644531 -3.960938 4.644531 -9 Z M 4.644531 -9 "/></g></g></g><g fill="#ffffff" fill-opacity="1"><g transform="translate(693.253207, 421.88906)"><g><path d="M 12.421875 -18.574219 C 8.855469 -18.574219 6.625 -16.558594 5.507812 -13.285156 L 5.507812 -18 L 2.628906 -18 L 2.628906 0 L 5.507812 0 L 5.507812 -6.875 C 5.507812 -13.066406 7.632812 -16.164062 11.628906 -16.164062 C 14.257812 -16.164062 15.949219 -15.011719 15.949219 -11.160156 L 15.949219 0 L 18.828125 0 L 18.828125 -11.484375 C 18.828125 -16.128906 16.921875 -18.574219 12.421875 -18.574219 Z M 12.421875 -18.574219 "/></g></g></g><g fill="#ffffff" fill-opacity="1"><g transform="translate(714.349245, 421.88906)"><g><path d="M 12.421875 -18.574219 C 8.855469 -18.574219 6.625 -16.558594 5.507812 -13.285156 L 5.507812 -25.199219 L 2.628906 -25.199219 L 2.628906 0 L 5.507812 0 L 5.507812 -6.875 C 5.507812 -13.066406 7.632812 -16.164062 11.628906 -16.164062 C 14.257812 -16.164062 15.949219 -15.011719 15.949219 -11.160156 L 15.949219 0 L 18.828125 0 L 18.828125 -11.484375 C 18.828125 -16.128906 16.921875 -18.574219 12.421875 -18.574219 Z M 12.421875 -18.574219 "/></g></g></g><g fill="#ffffff" fill-opacity="1"><g transform="translate(735.445283, 421.88906)"><g><path d="M 10.800781 0.574219 C 16.847656 0.574219 19.835938 -3.636719 19.835938 -9.035156 C 19.835938 -14.363281 16.847656 -18.574219 10.800781 -18.574219 C 4.714844 -18.574219 1.726562 -14.398438 1.726562 -9.035156 C 1.726562 -3.601562 4.714844 0.574219 10.800781 0.574219 Z M 4.644531 -9 C 4.644531 -14.074219 6.730469 -16.234375 10.800781 -16.234375 C 14.867188 -16.234375 16.921875 -14.074219 16.921875 -9 C 16.921875 -3.960938 14.867188 -1.765625 10.800781 -1.765625 C 6.730469 -1.765625 4.644531 -3.960938 4.644531 -9 Z M 4.644531 -9 "/></g></g></g><g fill="#ffffff" fill-opacity="1"><g transform="translate(757.009338, 421.88906)"><g><path d="M 1.367188 -6.011719 C 1.441406 -2.230469 3.816406 0.574219 9.683594 0.574219 C 14.472656 0.574219 17.027344 -1.222656 17.027344 -4.894531 C 17.027344 -7.847656 15.515625 -9.613281 11.375 -10.222656 L 7.558594 -10.765625 C 5.292969 -11.089844 4.644531 -12.167969 4.644531 -13.429688 C 4.644531 -15.191406 5.902344 -16.414062 8.964844 -16.414062 C 12.277344 -16.414062 13.644531 -14.722656 13.824219 -12.851562 L 16.667969 -12.851562 C 16.453125 -16.234375 13.753906 -18.613281 9.035156 -18.613281 C 4.5 -18.613281 1.835938 -16.558594 1.835938 -13.210938 C 1.835938 -10.441406 3.601562 -8.785156 6.730469 -8.351562 L 10.90625 -7.738281 C 13.175781 -7.414062 14.183594 -6.480469 14.183594 -4.753906 C 14.183594 -2.734375 12.925781 -1.621094 9.757812 -1.621094 C 5.617188 -1.621094 4.246094 -3.5625 4.03125 -6.011719 Z M 1.367188 -6.011719 "/></g></g></g><g fill="#f7a400" fill-opacity="1"><g transform="translate(81.000002, 732.108319)"><g><path d="M 1.402344 -7.882812 C 1.585938 -3.527344 4.285156 0.613281 12.167969 0.613281 C 19.65625 0.613281 22.570312 -2.449219 22.570312 -7.164062 C 22.570312 -11.339844 20.125 -13.644531 15.265625 -14.183594 L 10.261719 -14.796875 C 8.28125 -15.011719 7.453125 -16.054688 7.453125 -17.460938 C 7.453125 -19.332031 9 -20.519531 11.914062 -20.519531 C 15.085938 -20.519531 16.667969 -19.078125 16.957031 -16.847656 L 22.320312 -16.847656 C 22.03125 -21.097656 19.078125 -24.550781 11.914062 -24.550781 C 5.183594 -24.550781 1.945312 -21.457031 1.945312 -17.136719 C 1.945312 -13.175781 4.320312 -10.835938 8.566406 -10.332031 L 13.859375 -9.648438 C 15.984375 -9.359375 17.0625 -8.425781 17.0625 -6.625 C 17.0625 -4.714844 15.875 -3.457031 12.238281 -3.457031 C 8.460938 -3.457031 6.875 -5.328125 6.730469 -7.882812 Z M 1.402344 -7.882812 "/></g></g></g><g fill="#f7a400" fill-opacity="1"><g transform="translate(105.048055, 732.108319)"><g><path d="M 16.054688 -18 L 16.054688 -15.335938 C 14.796875 -17.386719 12.707031 -18.574219 9.613281 -18.574219 C 3.742188 -18.574219 1.332031 -14.183594 1.332031 -9 C 1.332031 -3.886719 3.742188 0.574219 9.613281 0.574219 C 12.707031 0.574219 14.796875 -0.648438 16.054688 -2.699219 L 16.054688 7.199219 L 21.382812 7.199219 L 21.382812 -18 Z M 11.269531 -3.601562 C 7.882812 -3.601562 6.660156 -5.292969 6.660156 -9 C 6.660156 -12.742188 7.882812 -14.398438 11.269531 -14.398438 C 14.617188 -14.398438 16.054688 -12.671875 16.054688 -9 C 16.054688 -5.328125 14.617188 -3.601562 11.269531 -3.601562 Z M 11.269531 -3.601562 "/></g></g></g><g fill="#f7a400" fill-opacity="1"><g transform="translate(128.412106, 732.108319)"><g><path d="M 15.011719 -18 L 15.011719 -9.828125 C 15.011719 -5.761719 13.355469 -3.78125 10.691406 -3.78125 C 8.425781 -3.78125 7.164062 -4.933594 7.164062 -7.777344 L 7.164062 -18 L 1.835938 -18 L 1.835938 -6.984375 C 1.835938 -2.269531 3.925781 0.574219 8.640625 0.574219 C 11.878906 0.574219 13.894531 -1.042969 15.011719 -3.457031 L 15.011719 0 L 20.339844 0 L 20.339844 -18 Z M 15.011719 -18 "/></g></g></g><g fill="#f7a400" fill-opacity="1"><g transform="translate(150.840155, 732.108319)"><g><path d="M 7.558594 0.46875 C 11.230469 0.46875 13.390625 -1.367188 14.21875 -3.851562 C 14.21875 -2.375 14.328125 -1.1875 14.507812 0 L 19.152344 0 C 18.972656 -1.546875 18.863281 -2.988281 18.863281 -4.679688 L 18.863281 -12.457031 C 18.863281 -16.273438 16.199219 -18.613281 10.726562 -18.613281 C 5.257812 -18.613281 2.089844 -15.984375 1.945312 -12.132812 L 7.164062 -12.132812 C 7.234375 -13.96875 8.386719 -14.941406 10.835938 -14.941406 C 13.246094 -14.941406 13.96875 -14.113281 13.96875 -12.851562 C 13.96875 -11.808594 13.390625 -11.339844 11.734375 -11.050781 L 7.488281 -10.332031 C 2.84375 -9.539062 1.585938 -7.667969 1.585938 -4.789062 C 1.585938 -1.546875 3.925781 0.46875 7.558594 0.46875 Z M 9.359375 -3.167969 C 7.921875 -3.167969 6.839844 -3.886719 6.839844 -5.328125 C 6.839844 -6.695312 7.597656 -7.378906 9.503906 -7.847656 L 11.015625 -8.207031 C 12.132812 -8.460938 13.03125 -8.710938 13.96875 -9.359375 L 13.96875 -8.566406 C 13.96875 -5.21875 12.167969 -3.167969 9.359375 -3.167969 Z M 9.359375 -3.167969 "/></g></g></g><g fill="#f7a400" fill-opacity="1"><g transform="translate(171.684194, 732.108319)"><g><path d="M 16.054688 -25.199219 L 16.054688 -15.300781 C 14.796875 -17.351562 12.707031 -18.574219 9.613281 -18.574219 C 3.742188 -18.574219 1.332031 -14.148438 1.332031 -9.035156 C 1.332031 -3.816406 3.742188 0.574219 9.613281 0.574219 C 12.707031 0.574219 14.796875 -0.613281 16.054688 -2.664062 L 16.054688 0 L 21.382812 0 L 21.382812 -25.199219 Z M 11.269531 -3.601562 C 7.882812 -3.601562 6.660156 -5.292969 6.660156 -9 C 6.660156 -12.742188 7.882812 -14.398438 11.269531 -14.398438 C 14.617188 -14.398438 16.054688 -12.671875 16.054688 -9 C 16.054688 -5.328125 14.617188 -3.601562 11.269531 -3.601562 Z M 11.269531 -3.601562 "/></g></g></g><g fill="#f7a400" fill-opacity="1"><g transform="translate(195.048245, 732.108319)"><g/></g></g><g fill="#f7a400" fill-opacity="1"><g transform="translate(204.156265, 732.108319)"><g><path d="M 1.402344 -7.777344 C 1.476562 -2.484375 5.183594 0.613281 11.878906 0.613281 C 19.332031 0.613281 22.285156 -3.058594 22.285156 -7.632812 C 22.285156 -13.03125 17.964844 -14.398438 15.300781 -14.398438 C 14.039062 -14.398438 13.320312 -14.292969 12.78125 -14.183594 L 20.84375 -19.65625 L 20.84375 -23.941406 L 2.410156 -23.941406 L 2.410156 -19.65625 L 14.6875 -19.65625 L 6.40625 -14.039062 L 8.460938 -10.691406 C 9.613281 -11.375 10.691406 -11.808594 12.382812 -11.808594 C 14.867188 -11.808594 16.558594 -10.332031 16.558594 -7.777344 C 16.558594 -4.96875 14.832031 -3.527344 11.878906 -3.527344 C 8.964844 -3.527344 7.09375 -5.003906 6.949219 -7.777344 Z M 1.402344 -7.777344 "/></g></g></g><g clip-path="url(#id9)"><path fill="#f7a400" d="M 1110.574219 200.691406 C 1090.070312 200.691406 1073.238281 216.398438 1071.453125 236.433594 L 1044.78125 236.433594 C 1043.03125 221.769531 1030.550781 210.394531 1015.414062 210.394531 C 999.082031 210.394531 985.839844 223.640625 985.839844 239.972656 C 985.839844 244.734375 986.960938 249.226562 988.960938 253.207031 L 962.46875 270.707031 C 958.234375 266.050781 952.125 263.117188 945.332031 263.117188 C 932.546875 263.117188 922.183594 273.480469 922.183594 286.265625 C 922.183594 295.75 927.890625 303.902344 936.058594 307.480469 L 928.902344 334.515625 C 928.59375 334.496094 928.28125 334.488281 927.96875 334.488281 C 918.382812 334.488281 910.609375 342.261719 910.609375 351.851562 C 910.609375 361.4375 918.382812 369.210938 927.96875 369.210938 C 937.558594 369.210938 945.332031 361.4375 945.332031 351.851562 C 945.332031 345.054688 941.425781 339.175781 935.738281 336.324219 L 942.894531 309.289062 C 943.695312 309.371094 944.507812 309.410156 945.332031 309.410156 C 958.113281 309.410156 968.476562 299.050781 968.476562 286.265625 C 968.476562 282.816406 967.722656 279.546875 966.371094 276.605469 L 992.863281 259.109375 C 998.289062 265.492188 1006.378906 269.550781 1015.414062 269.550781 C 1030.550781 269.550781 1043.03125 258.175781 1044.78125 243.507812 L 1071.453125 243.507812 C 1073.238281 263.542969 1090.070312 279.253906 1110.574219 279.253906 C 1132.269531 279.253906 1149.855469 261.667969 1149.855469 239.972656 C 1149.855469 218.277344 1132.269531 200.691406 1110.574219 200.691406 " fill-opacity="1" fill-rule="nonzero"/></g><g clip-path="url(#id10)"><path fill="#f7a400" d="M 1087.785156 461.464844 C 1108.289062 461.464844 1125.121094 445.757812 1126.90625 425.722656 L 1153.582031 425.722656 C 1155.328125 440.386719 1167.808594 451.761719 1182.945312 451.761719 C 1199.28125 451.761719 1212.523438 438.515625 1212.523438 422.183594 C 1212.523438 417.421875 1211.394531 412.929688 1209.402344 408.949219 L 1235.890625 391.445312 C 1240.125 396.105469 1246.234375 399.039062 1253.027344 399.039062 C 1265.8125 399.039062 1276.175781 388.671875 1276.175781 375.890625 C 1276.175781 366.40625 1270.472656 358.253906 1262.300781 354.675781 L 1269.460938 327.640625 C 1269.765625 327.65625 1270.078125 327.667969 1270.390625 327.667969 C 1279.976562 327.667969 1287.75 319.894531 1287.75 310.304688 C 1287.75 300.71875 1279.976562 292.945312 1270.390625 292.945312 C 1260.800781 292.945312 1253.027344 300.71875 1253.027344 310.304688 C 1253.027344 317.101562 1256.933594 322.980469 1262.621094 325.832031 L 1255.464844 352.867188 C 1254.667969 352.785156 1253.851562 352.746094 1253.027344 352.746094 C 1240.246094 352.746094 1229.882812 363.105469 1229.882812 375.890625 C 1229.882812 379.339844 1230.636719 382.609375 1231.992188 385.550781 L 1205.496094 403.046875 C 1200.074219 396.664062 1191.984375 392.605469 1182.945312 392.605469 C 1167.808594 392.605469 1155.328125 403.980469 1153.582031 418.648438 L 1126.90625 418.648438 C 1125.121094 398.613281 1108.289062 382.902344 1087.785156 382.902344 C 1066.089844 382.902344 1048.503906 400.488281 1048.503906 422.183594 C 1048.503906 443.878906 1066.089844 461.464844 1087.785156 461.464844 " fill-opacity="1" fill-rule="nonzero"/></g><g clip-path="url(#id11)"><path fill="#f7a400" d="M 1229.566406 342.46875 C 1229.566406 321.96875 1213.859375 305.136719 1193.824219 303.351562 L 1193.824219 276.675781 C 1208.488281 274.929688 1219.863281 262.449219 1219.863281 247.3125 C 1219.863281 230.976562 1206.617188 217.734375 1190.285156 217.734375 C 1185.523438 217.734375 1181.03125 218.863281 1177.050781 220.855469 L 1159.546875 194.367188 C 1164.210938 190.132812 1167.140625 184.023438 1167.140625 177.230469 C 1167.140625 164.445312 1156.777344 154.082031 1143.992188 154.082031 C 1134.507812 154.082031 1126.355469 159.789062 1122.777344 167.957031 L 1095.746094 160.796875 C 1095.761719 160.492188 1095.769531 160.179688 1095.769531 159.867188 C 1095.769531 150.28125 1087.996094 142.507812 1078.410156 142.507812 C 1068.820312 142.507812 1061.046875 150.28125 1061.046875 159.867188 C 1061.046875 169.457031 1068.820312 177.230469 1078.410156 177.230469 C 1085.203125 177.230469 1091.082031 173.324219 1093.933594 167.636719 L 1120.96875 174.792969 C 1120.886719 175.589844 1120.847656 176.40625 1120.847656 177.230469 C 1120.847656 190.011719 1131.207031 200.375 1143.992188 200.375 C 1147.441406 200.375 1150.710938 199.621094 1153.652344 198.265625 L 1171.148438 224.757812 C 1164.765625 230.183594 1160.707031 238.273438 1160.707031 247.3125 C 1160.707031 262.449219 1172.082031 274.929688 1186.75 276.675781 L 1186.75 303.351562 C 1166.714844 305.136719 1151.007812 321.96875 1151.007812 342.46875 C 1151.007812 364.167969 1168.589844 381.753906 1190.285156 381.753906 C 1211.980469 381.753906 1229.566406 364.167969 1229.566406 342.46875 " fill-opacity="1" fill-rule="nonzero"/></g><g clip-path="url(#id12)"><path fill="#f7a400" d="M 968.792969 319.683594 C 968.792969 340.1875 984.5 357.015625 1004.539062 358.804688 L 1004.539062 385.480469 C 989.871094 387.226562 978.5 399.703125 978.5 414.84375 C 978.5 431.179688 991.742188 444.421875 1008.074219 444.421875 C 1012.832031 444.421875 1017.328125 443.292969 1021.3125 441.300781 L 1038.8125 467.789062 C 1034.148438 472.023438 1031.222656 478.132812 1031.222656 484.925781 C 1031.222656 497.710938 1041.585938 508.074219 1054.371094 508.074219 C 1063.855469 508.074219 1072.007812 502.367188 1075.582031 494.199219 L 1102.617188 501.359375 C 1102.605469 501.664062 1102.589844 501.976562 1102.589844 502.289062 C 1102.589844 511.875 1110.363281 519.648438 1119.953125 519.648438 C 1129.539062 519.648438 1137.3125 511.875 1137.3125 502.289062 C 1137.3125 492.699219 1129.539062 484.925781 1119.953125 484.925781 C 1113.15625 484.925781 1107.277344 488.832031 1104.429688 494.519531 L 1077.386719 487.363281 C 1077.472656 486.5625 1077.515625 485.75 1077.515625 484.925781 C 1077.515625 472.144531 1067.152344 461.78125 1054.371094 461.78125 C 1050.921875 461.78125 1047.648438 462.535156 1044.710938 463.890625 L 1027.207031 437.394531 C 1033.597656 431.972656 1037.652344 423.882812 1037.652344 414.84375 C 1037.652344 399.703125 1026.277344 387.226562 1011.609375 385.480469 L 1011.609375 358.804688 C 1031.648438 357.015625 1047.355469 340.1875 1047.355469 319.683594 C 1047.355469 297.988281 1029.769531 280.402344 1008.074219 280.402344 C 986.378906 280.402344 968.792969 297.988281 968.792969 319.683594 " fill-opacity="1" fill-rule="nonzero"/></g><g fill="#1a1b4b" fill-opacity="1"><g transform="translate(947.375989, 364.300341)"><g><path d="M 9.628906 -54.246094 L 0.746094 -54.246094 C 0.339844 -54.246094 0 -53.910156 0 -53.636719 L 0 -32.34375 L 10.375 -32.34375 L 10.375 -44.347656 C 22.171875 -44.957031 30.921875 -40.007812 30.921875 -27.125 C 30.921875 -10.375 16.953125 -9.695312 10.375 -9.96875 L 10.375 -21.902344 L 0 -21.902344 L 0 -0.609375 C 0 -0.339844 0.339844 0 0.746094 0 L 9.628906 0 C 23.121094 0 41.363281 -3.933594 41.363281 -27.125 C 41.363281 -51.195312 22.851562 -54.246094 9.628906 -54.246094 Z M 9.628906 -54.246094 "/></g></g></g><g fill="#1a1b4b" fill-opacity="1"><g transform="translate(990.837015, 364.300341)"><g><path d="M 25.769531 -10.105469 L 10.375 -10.105469 L 10.375 -22.308594 L 31.667969 -22.308594 C 32.074219 -22.308594 32.414062 -22.648438 32.414062 -22.917969 L 32.414062 -31.53125 C 32.414062 -31.871094 32.074219 -32.140625 31.667969 -32.140625 L 10.375 -32.140625 L 10.375 -44.414062 L 25.769531 -44.414062 L 25.769531 -54.246094 L 0.746094 -54.246094 C 0.339844 -54.246094 0 -53.910156 0 -53.636719 L 0 -0.609375 C 0 -0.339844 0.339844 0 0.746094 0 L 25.769531 0 Z M 25.769531 -10.105469 "/></g></g></g><g fill="#1a1b4b" fill-opacity="1"><g transform="translate(1024.873577, 364.300341)"><g><path d="M 28.277344 -44.144531 L 21.15625 -24.277344 L 10.578125 -53.839844 C 10.511719 -54.113281 10.238281 -54.246094 9.898438 -54.246094 L 0.679688 -54.246094 C 0.136719 -54.246094 -0.136719 -53.839844 0.0664062 -53.433594 L 20.476562 -0.339844 C 20.75 0.136719 21.5625 0.136719 21.765625 -0.339844 L 38.71875 -44.144531 Z M 28.277344 -44.144531 "/></g></g></g><g fill="#1a1b4b" fill-opacity="1"><g transform="translate(1065.554721, 364.300341)"><g/></g></g><g fill="#1a1b4b" fill-opacity="1"><g transform="translate(1082.505191, 364.300341)"><g><path d="M 56.351562 -44.28125 L 49.433594 -25.632812 L 38.71875 -53.839844 C 38.582031 -54.113281 38.3125 -54.246094 38.042969 -54.246094 L 28.820312 -54.246094 C 28.546875 -54.246094 28.277344 -54.113281 28.207031 -53.839844 L 17.425781 -25.632812 L 10.578125 -44.28125 L 0 -44.28125 L 16.816406 -0.40625 C 17.019531 0.136719 17.902344 0.136719 18.105469 -0.40625 L 33.429688 -40.617188 L 48.753906 -0.40625 C 48.957031 0.136719 49.839844 0.136719 50.042969 -0.40625 L 66.929688 -44.28125 Z M 56.351562 -44.28125 "/></g></g></g><g fill="#1a1b4b" fill-opacity="1"><g transform="translate(1152.747968, 364.300341)"><g><path d="M 10.375 -30.71875 L 10.375 -53.636719 C 10.375 -53.910156 10.105469 -54.246094 9.628906 -54.246094 L 0.746094 -54.246094 C 0.339844 -54.246094 0 -53.910156 0 -53.636719 L 0 -30.71875 Z M 40.550781 -54.246094 L 31.667969 -54.246094 C 31.261719 -54.246094 30.921875 -53.910156 30.921875 -53.636719 L 30.921875 -20.273438 L 10.375 -20.273438 L 10.375 -20.34375 L 0 -20.34375 L 0 -0.609375 C 0 -0.339844 0.339844 0 0.746094 0 L 9.628906 0 C 10.105469 0 10.375 -0.339844 10.375 -0.609375 L 10.375 -10.171875 L 30.921875 -10.171875 L 30.921875 -0.609375 C 30.921875 -0.339844 31.261719 0 31.667969 0 L 40.550781 0 C 41.023438 0 41.296875 -0.339844 41.296875 -0.609375 L 41.296875 -53.636719 C 41.296875 -53.910156 41.023438 -54.246094 40.550781 -54.246094 Z M 40.550781 -54.246094 "/></g></g></g><g fill="#1a1b4b" fill-opacity="1"><g transform="translate(1196.14119, 364.300341)"><g><path d="M 31.191406 -26.988281 C 31.191406 -29.835938 28.953125 -32.140625 26.105469 -32.140625 C 23.257812 -32.140625 21.019531 -29.835938 21.019531 -26.988281 C 21.019531 -24.207031 23.257812 -21.902344 26.105469 -21.902344 C 28.953125 -21.902344 31.191406 -24.207031 31.191406 -26.988281 Z M 52.214844 -27.191406 C 52.214844 -40.6875 43.464844 -54.246094 26.175781 -54.246094 C 8.613281 -54.246094 0 -40.6875 0 -27.191406 C 0 -13.628906 8.613281 0 26.175781 0 C 43.464844 0 52.214844 -13.628906 52.214844 -27.191406 Z M 42.042969 -26.988281 C 42.042969 -18.242188 36.683594 -9.492188 26.175781 -9.492188 C 15.527344 -9.492188 10.238281 -18.242188 10.238281 -26.988281 C 10.238281 -35.871094 15.527344 -44.6875 26.175781 -44.6875 C 36.683594 -44.6875 42.042969 -35.871094 42.042969 -26.988281 Z M 42.042969 -26.988281 "/></g></g></g><g fill="#021859" fill-opacity="1"><g transform="translate(1012.414049, 406.41021)"><g><path d="M 5.640625 -15.734375 L 11.6875 -7.359375 L 17.765625 -15.734375 L 20.09375 -15.734375 L 20.09375 0 L 17.671875 0 L 17.671875 -6.59375 C 17.671875 -7.550781 17.6875 -8.457031 17.71875 -9.3125 C 17.75 -10.175781 17.816406 -11.046875 17.921875 -11.921875 L 12.390625 -4.515625 L 10.90625 -4.515625 L 5.4375 -11.890625 C 5.539062 -11.035156 5.609375 -10.175781 5.640625 -9.3125 C 5.671875 -8.457031 5.6875 -7.550781 5.6875 -6.59375 L 5.6875 0 L 3.265625 0 L 3.265625 -15.734375 Z M 5.640625 -15.734375 "/></g></g></g><g fill="#021859" fill-opacity="1"><g transform="translate(1035.777932, 406.41021)"><g><path d="M 3.265625 -15.734375 L 14.921875 -15.734375 L 14.921875 -13.40625 L 5.6875 -13.40625 L 5.6875 -9.234375 L 13.6875 -9.234375 L 13.6875 -6.90625 L 5.6875 -6.90625 L 5.6875 -2.34375 L 14.921875 -2.34375 L 14.921875 0 L 3.265625 0 Z M 3.265625 -15.734375 "/></g></g></g><g fill="#021859" fill-opacity="1"><g transform="translate(1053.475115, 406.41021)"><g><path d="M 16.28125 -15.734375 L 18.703125 -15.734375 L 18.703125 0 L 16.34375 0 L 5.28125 -12.234375 C 5.375 -11.273438 5.460938 -10.320312 5.546875 -9.375 C 5.640625 -8.425781 5.6875 -7.484375 5.6875 -6.546875 L 5.6875 0 L 3.265625 0 L 3.265625 -15.734375 L 5.578125 -15.734375 L 16.640625 -3.21875 C 16.546875 -3.945312 16.46875 -4.734375 16.40625 -5.578125 C 16.351562 -6.429688 16.316406 -7.285156 16.296875 -8.140625 C 16.285156 -8.992188 16.28125 -9.800781 16.28125 -10.5625 Z M 16.28125 -15.734375 "/></g></g></g><g fill="#021859" fill-opacity="1"><g transform="translate(1075.444817, 406.41021)"><g><path d="M 6.90625 0 L 6.90625 -13.40625 L 1.59375 -13.40625 L 1.59375 -15.734375 L 14.75 -15.734375 L 14.75 -13.40625 L 9.328125 -13.40625 L 9.328125 0 Z M 6.90625 0 "/></g></g></g><g fill="#021859" fill-opacity="1"><g transform="translate(1091.792783, 406.41021)"><g><path d="M 19.515625 -7.875 C 19.515625 -6.726562 19.300781 -5.664062 18.875 -4.6875 C 18.445312 -3.707031 17.84375 -2.847656 17.0625 -2.109375 C 16.28125 -1.378906 15.359375 -0.804688 14.296875 -0.390625 C 13.234375 0.015625 12.070312 0.21875 10.8125 0.21875 C 9.519531 0.21875 8.34375 0.015625 7.28125 -0.390625 C 6.21875 -0.804688 5.300781 -1.378906 4.53125 -2.109375 C 3.757812 -2.847656 3.160156 -3.707031 2.734375 -4.6875 C 2.304688 -5.664062 2.09375 -6.726562 2.09375 -7.875 C 2.09375 -9.007812 2.304688 -10.066406 2.734375 -11.046875 C 3.160156 -12.035156 3.757812 -12.894531 4.53125 -13.625 C 5.300781 -14.363281 6.21875 -14.9375 7.28125 -15.34375 C 8.34375 -15.757812 9.519531 -15.96875 10.8125 -15.96875 C 12.070312 -15.96875 13.234375 -15.757812 14.296875 -15.34375 C 15.359375 -14.9375 16.28125 -14.363281 17.0625 -13.625 C 17.84375 -12.894531 18.445312 -12.035156 18.875 -11.046875 C 19.300781 -10.066406 19.515625 -9.007812 19.515625 -7.875 Z M 17.046875 -7.875 C 17.046875 -8.96875 16.78125 -9.941406 16.25 -10.796875 C 15.71875 -11.660156 14.984375 -12.34375 14.046875 -12.84375 C 13.109375 -13.351562 12.03125 -13.609375 10.8125 -13.609375 C 9.570312 -13.609375 8.484375 -13.351562 7.546875 -12.84375 C 6.609375 -12.34375 5.875 -11.660156 5.34375 -10.796875 C 4.820312 -9.941406 4.5625 -8.96875 4.5625 -7.875 C 4.5625 -6.78125 4.820312 -5.800781 5.34375 -4.9375 C 5.875 -4.070312 6.609375 -3.390625 7.546875 -2.890625 C 8.484375 -2.390625 9.570312 -2.140625 10.8125 -2.140625 C 12.03125 -2.140625 13.109375 -2.390625 14.046875 -2.890625 C 14.984375 -3.390625 15.71875 -4.070312 16.25 -4.9375 C 16.78125 -5.8125 17.046875 -6.789062 17.046875 -7.875 Z M 17.046875 -7.875 "/></g></g></g><g fill="#021859" fill-opacity="1"><g transform="translate(1113.402691, 406.41021)"><g><path d="M 16.40625 -10.8125 C 16.40625 -9.78125 16.082031 -8.835938 15.4375 -7.984375 C 14.800781 -7.140625 13.988281 -6.539062 13 -6.1875 L 17.203125 0.015625 L 14.203125 0 L 10.28125 -5.84375 L 5.6875 -5.84375 L 5.6875 0 L 3.265625 0 L 3.265625 -15.734375 L 11.359375 -15.734375 C 12.242188 -15.734375 13.066406 -15.523438 13.828125 -15.109375 C 14.585938 -14.691406 15.207031 -14.113281 15.6875 -13.375 C 16.164062 -12.644531 16.40625 -11.789062 16.40625 -10.8125 Z M 10.796875 -13.40625 L 5.6875 -13.40625 L 5.6875 -8.1875 L 11.078125 -8.1875 C 11.609375 -8.1875 12.082031 -8.304688 12.5 -8.546875 C 12.914062 -8.796875 13.25 -9.125 13.5 -9.53125 C 13.75 -9.9375 13.875 -10.375 13.875 -10.84375 C 13.875 -11.332031 13.726562 -11.769531 13.4375 -12.15625 C 13.15625 -12.550781 12.78125 -12.859375 12.3125 -13.078125 C 11.851562 -13.296875 11.347656 -13.40625 10.796875 -13.40625 Z M 10.796875 -13.40625 "/></g></g></g><g fill="#021859" fill-opacity="1"><g transform="translate(1133.011264, 406.41021)"><g><path d="M 12.359375 0 L 3.109375 0 L 3.109375 -2.34375 L 6.515625 -2.34375 L 6.515625 -13.40625 L 3.109375 -13.40625 L 3.109375 -15.734375 L 12.359375 -15.734375 L 12.359375 -13.40625 L 8.953125 -13.40625 L 8.953125 -2.34375 L 12.359375 -2.34375 Z M 12.359375 0 "/></g></g></g><g fill="#021859" fill-opacity="1"><g transform="translate(1148.504732, 406.41021)"><g><path d="M 15.375 0 L 13.6875 -3.78125 L 5.625 -3.78125 L 3.9375 0 L 1.421875 0 L 8.390625 -15.734375 L 11.0625 -15.734375 L 18.015625 0 Z M 8.4375 -10.15625 L 6.65625 -6.109375 L 12.65625 -6.109375 L 10.84375 -10.25 C 10.414062 -11.175781 10.015625 -12.164062 9.640625 -13.21875 C 9.453125 -12.664062 9.253906 -12.132812 9.046875 -11.625 C 8.847656 -11.113281 8.644531 -10.625 8.4375 -10.15625 Z M 8.4375 -10.15625 "/></g></g></g><g fill="#021859" fill-opacity="1"><g transform="translate(1167.933415, 406.41021)"><g><path d="M 3.6875 -4.8125 C 4.46875 -3.894531 5.28125 -3.1875 6.125 -2.6875 C 6.96875 -2.195312 8.003906 -1.953125 9.234375 -1.953125 C 9.898438 -1.953125 10.535156 -2.035156 11.140625 -2.203125 C 11.742188 -2.378906 12.242188 -2.644531 12.640625 -3 C 13.046875 -3.351562 13.25 -3.789062 13.25 -4.3125 C 13.25 -5.0625 12.847656 -5.601562 12.046875 -5.9375 C 11.253906 -6.269531 10.140625 -6.539062 8.703125 -6.75 C 6.929688 -7.019531 5.519531 -7.515625 4.46875 -8.234375 C 3.425781 -8.960938 2.90625 -10.023438 2.90625 -11.421875 C 2.90625 -12.367188 3.1875 -13.175781 3.75 -13.84375 C 4.3125 -14.519531 5.070312 -15.039062 6.03125 -15.40625 C 6.988281 -15.78125 8.046875 -15.96875 9.203125 -15.96875 C 10.640625 -15.96875 11.878906 -15.726562 12.921875 -15.25 C 13.972656 -14.769531 14.800781 -14.085938 15.40625 -13.203125 L 13.734375 -11.46875 C 13.242188 -12.15625 12.609375 -12.710938 11.828125 -13.140625 C 11.046875 -13.566406 10.144531 -13.78125 9.125 -13.78125 C 8.082031 -13.78125 7.207031 -13.585938 6.5 -13.203125 C 5.789062 -12.828125 5.4375 -12.296875 5.4375 -11.609375 C 5.4375 -10.796875 5.816406 -10.21875 6.578125 -9.875 C 7.335938 -9.539062 8.332031 -9.273438 9.5625 -9.078125 C 10.363281 -8.960938 11.132812 -8.804688 11.875 -8.609375 C 12.625 -8.410156 13.289062 -8.148438 13.875 -7.828125 C 14.457031 -7.515625 14.921875 -7.109375 15.265625 -6.609375 C 15.609375 -6.117188 15.78125 -5.503906 15.78125 -4.765625 C 15.78125 -3.765625 15.507812 -2.890625 14.96875 -2.140625 C 14.4375 -1.390625 13.671875 -0.804688 12.671875 -0.390625 C 11.671875 0.015625 10.488281 0.21875 9.125 0.21875 C 7.675781 0.21875 6.363281 -0.0195312 5.1875 -0.5 C 4.019531 -0.976562 2.992188 -1.753906 2.109375 -2.828125 Z M 3.6875 -4.8125 "/></g></g></g></svg>